{"title":"Harry.Potter.and.the.Deathly.Hallows.Part.1.DVDRip.XviD-RLF","uid":6282341,"size":756300102,"categoryP":"video","categoryS":"movies","magnet":"?xt=urn:btih:2f27a0284123dcd77579a56a902f8ecbefa8e278&amp;dn=Harry.Potter.and.the.Deathly.Hallows.Part.1.DVDRip.XviD-RLF&amp;tr=udp%3A%2F%2Ftracker.openbittorrent.com%3A80&amp;tr=udp%3A%2F%2Fopen.demonii.com%3A1337&amp;tr=udp%3A%2F%2Ftracker.coppersurfer.tk%3A6969&amp;tr=udp%3A%2F%2Fexodus.desync.com%3A6969","seeders":0,"leechers":0,"uploader":"rlf-rls","files":-1,"time":1301443872,"description":"Harry.Potter.and.the.Deathly.Hallows.Part.1.DVDRip.XviD-RLF             \n\n\nGeneral:\n\n\nComplete name                    : rlf-hpdhp1.avi\nFormat/Info                      : Audio Video Interleave\nFile size                        : 707 MiB\nDuration                         : 2h 26mn\nOverall bit rate                 : 677 Kbps\nLanguage                         : English\nEncoder                          : Ralf\n\n\nVideo:\n\n\nFormat                           : MPEG-4 Visual\nFormat profile                   : Simple@L3\nFormat settings, BVOP            : 1\nFormat settings, QPel            : No\nFormat settings, GMC             : No warppoints\nFormat settings, Matrix          : Custom\nCodec ID/Hint                    : XviD\nDuration                         : 2h 26mn\nBit rate                         : 547 Kbps\nWidth                            : 608 pixels\nHeight                           : 352 pixels\nDisplay aspect ratio             : 16:9\nFrame rate                       : 23.976 fps\nColor space                      : YUV\nChroma subsampling               : 4:2:0\nBit depth                        : 8 bits\nScan type                        : Progressive\nBits/(Pixel*Frame)               : 0.107\nStream size                      : 572 MiB (81%)\n\n\nAudio:\n\n\nFormat                           : MPEG Audio\nFormat profile                   : Layer 3\nMode                             : Joint stereo\nCodec ID/Hint                    : MP3\nDuration                         : 2h 26mn\nBit rate mode                    : Variable\nBit rate                         : 116 Kbps\nChannel(s)                       : 2 channels\nSampling rate                    : 48.0 KHz\nStream size                      : 122 MiB (17%)\nAlignment                        : Aligned on interleaves\nInterleave, duration             : 24 ms (0.58 video frame)\nInterleave, preload duration     : 138 ms\nWriting library                  : LAME3.98.2\n                    \n                                  \nSOURCE:\n\nTWiZTED NTSC DVD-R\n\n\nPILOT:\n\n\nAs Harry races against time and evil to destroy the Horcruxes, he uncovers the existence of three most powerful objects in the wizarding world: the Deathly Hallows.\n\n\nCAST:\n\n\nBill Nighy ... Minister Rufus Scrimgeour \nEmma Watson ... Hermione Granger \nRichard Griffiths ... Vernon Dursley \nHarry Melling \t... Dudley Dursley \nDaniel Radcliffe ... Harry Potter\n\n\nSCREENS:\n\n &lt;a href=&quot;\nhttp://www.leetleech.org/images/35332162580613315347.png&quot; rel=&quot;nofollow&quot; target=&quot;_NEW&quot;&gt;\nhttp://www.leetleech.org/images/35332162580613315347.png&lt;/a&gt;\n &lt;a href=&quot;\nhttp://www.leetleech.org/images/00397791016828449838.png&quot; rel=&quot;nofollow&quot; target=&quot;_NEW&quot;&gt;\nhttp://www.leetleech.org/images/00397791016828449838.png&lt;/a&gt;\n &lt;a href=&quot;\nhttp://www.leetleech.org/images/02639207501115422820.png&quot; rel=&quot;nofollow&quot; target=&quot;_NEW&quot;&gt;\nhttp://www.leetleech.org/images/02639207501115422820.png&lt;/a&gt;\n &lt;a href=&quot;\nhttp://www.leetleech.org/images/50725543509998090571.png&quot; rel=&quot;nofollow&quot; target=&quot;_NEW&quot;&gt;\nhttp://www.leetleech.org/images/50725543509998090571.png&lt;/a&gt;","torrent":{"xt":"urn:btih:2f27a0284123dcd77579a56a902f8ecbefa8e278","amp;dn":"Harry.Potter.and.the.Deathly.Hallows.Part.1.DVDRip.XviD-RLF","amp;tr":["udp%3A%2F%2Ftracker.openbittorrent.com%3A80","udp%3A%2F%2Fopen.demonii.com%3A1337","udp%3A%2F%2Ftracker.coppersurfer.tk%3A6969","udp%3A%2F%2Fexodus.desync.com%3A6969"],"infoHash":"2f27a0284123dcd77579a56a902f8ecbefa8e278","infoHashBuffer":{"type":"Buffer","data":[47,39,160,40,65,35,220,215,117,121,165,106,144,47,142,203,239,168,226,120]},"announce":[],"urlList":[]}}